<svg viewBox="0 0 204 30" xmlns="http://www.w3.org/2000/svg">
<path d="M13.3138 13.7252H22.6716C22.8418 14.6601 23.0544 16.3598 23.0544 18.4419C23.0544 24.136 18.6308 29.915 12.0378 29.915C5.44478 29.915 -0.0422897 24.3077 0.000245649 16.5297C0.042781 8.3711 6.21041 3.10198 14.3772 3.10198C15.2705 3.10198 16.2913 3.18697 17.0144 3.27195L19.7792 12.0255L18.6308 12.4079L15.6958 9.73088C13.1437 7.43626 11.3997 6.67139 9.65578 6.67139C7.2738 6.67139 5.35971 8.4136 5.35971 11.8555C5.35971 18.3144 9.99606 24.9858 15.1003 24.9858C17.5248 24.9858 18.7158 24.0935 19.5665 23.2011L13.3138 15V13.7252ZM47.3634 18.9093C47.3634 25.1133 42.5994 30 36.049 30C29.4985 30 24.7346 25.1133 24.7346 18.9093C24.7346 12.7054 29.4985 7.8187 36.049 7.8187C42.5994 7.8187 47.3634 12.7054 47.3634 18.9093ZM39.7496 17.7195C38.0907 12.7054 35.9214 9.68839 33.3267 10.5382C30.7321 11.3881 30.7321 15.085 32.3484 20.0991C34.0073 25.1133 36.1766 28.1303 38.7713 27.2805C41.3659 26.4306 41.3659 22.7337 39.7496 17.7195ZM69.1628 20.3116L69.6732 22.0113C68.9927 25.7932 66.1428 29.915 60.443 29.915C54.0202 29.915 49.001 24.5184 49.001 16.7422C49.001 8.3711 55.1687 3.10198 62.7825 3.10198C63.8884 3.10198 64.8667 3.18697 65.4197 3.27195L68.1845 12.0255L67.036 12.4079L64.1011 9.73088C61.5915 7.47875 60.0602 6.62889 58.3163 6.62889C55.9343 6.62889 54.3605 8.4136 54.3605 11.8555C54.3605 18.3144 57.9335 24.136 63.1653 24.136C66.398 24.136 68.1419 22.3513 69.1628 20.3116ZM93.9609 26.0907L94.3863 27.4504C94.046 28.0453 92.5573 29.8725 89.9201 29.8725C86.3896 29.8725 84.9434 27.7904 83.9226 24.9858C82.9443 27.6204 80.6899 29.915 76.6065 29.915C72.9484 29.915 70.9493 27.4929 70.9493 24.8584C70.9493 21.204 73.9693 18.6119 80.4347 15.255C79.6265 13.7252 77.7975 13.0028 75.8409 13.0028C73.4589 12.9603 70.8217 13.9802 69.4605 15.8074L68.9927 14.3626C70.0135 11.6006 73.4163 7.94618 78.8609 7.94618C83.7524 7.94618 87.0702 10.9207 88.6015 15.6374L91.5364 24.6459C91.9618 26.0057 92.6423 26.3881 93.1953 26.3881C93.4931 26.3881 93.7908 26.2606 93.9609 26.0907ZM81.9234 19.4193L81.0302 16.7422C78.6057 18.5694 77.4147 20.9065 77.4147 22.6062C77.4147 24.8159 78.5206 25.8357 80.0519 25.8357C82.6891 25.8357 83.242 23.3711 81.9234 19.4193ZM111.741 14.4901L110.635 14.8725C108.338 13.8102 107.487 13.7252 105.573 13.7252C104.425 13.7252 103.319 14.2351 103.319 14.2351V25.7082C103.319 26.898 103.914 27.7904 105.488 28.2578V29.5326H94.8117V28.2578C96.2153 27.7904 96.3429 26.898 96.3429 25.7082V13.4703C96.3429 11.2606 95.7049 10.4958 93.4505 9.56091V8.28612H103.234L103.064 12.9178H103.149L103.957 11.8555C105.573 9.73088 107.615 8.20113 109.614 8.20113H109.784L111.741 14.4901ZM133.391 28.2578V29.5326H124.799L124.842 29.4901L124.629 29.5326L124.671 26.7705H124.459C123.778 27.7904 121.992 29.7025 118.802 29.7025C113.953 29.7025 110.933 25.6232 110.933 20.3541C110.933 13.4278 115.611 8.4136 123.268 8.4136C123.863 8.4136 124.459 8.45609 124.459 8.45609V6.71388C124.459 4.84419 123.523 4.2068 121.992 4.07932V2.93201L131.055 0H131.438V25.7082C131.438 26.898 131.991 27.7904 133.395 28.2578H133.391ZM124.459 22.5637V11.4306C124.161 11.3031 123.651 11.1331 122.885 11.1331C120.375 11.1331 117.27 13.0453 117.27 18.3994C117.27 23.3711 119.184 26.0907 121.779 26.0907C122.757 26.0907 124.459 25.6232 124.459 22.5637ZM145.812 28.2578V29.5326H134.923V28.2578C136.326 27.7904 136.879 26.898 136.879 25.7082V6.71388C136.879 4.84419 135.943 4.2068 134.412 4.07932V2.93201L143.476 0H143.859V25.7082C143.859 26.898 144.411 27.7904 145.815 28.2578H145.812ZM168.015 19.4618L168.483 20.9065C167.76 25.8782 163.719 29.915 158.445 29.915C151.681 29.915 147.343 24.8584 147.343 18.4844C147.343 12.6629 151.426 7.98867 157.169 7.98867C161.337 7.98867 164.442 10.5382 165.718 13.9802L154.574 21.5014C156.148 23.1586 158.36 24.3059 160.912 24.3059C164.4 24.3059 167.037 21.8839 168.015 19.4618ZM151.724 14.6601C151.724 16.5297 152.362 18.4844 153.468 20.1416L155.34 18.3569C156.616 17.1671 157.679 15.8499 157.679 14.0227C157.679 12.6204 156.743 10.9632 154.872 10.9632C153.128 10.9632 151.724 12.2805 151.724 14.6601ZM180.35 16.0623C184.476 18.1445 186.135 20.1841 186.135 23.0312C186.135 26.4731 183.37 29.915 177.458 29.915C174.31 29.915 172.481 29.4051 170.95 28.7677L168.951 22.5637L170.057 22.2238L171.035 23.1586C174.055 26.0057 176.65 27.8754 178.649 27.8754C180.138 27.8754 180.946 26.9405 180.946 25.9632C180.946 24.9858 180.776 23.9235 178.224 22.6487L174.438 20.7365C171.12 19.0368 169.546 16.9547 169.546 14.5751C169.546 10.4958 173.119 8.11615 177.713 8.11615C180.818 8.11615 182.562 8.54108 182.562 8.54108L184.306 13.9377L183.2 14.2776L182.52 13.6827C178.989 10.5807 177.756 9.94334 176.267 9.94334C175.204 9.94334 174.31 10.6232 174.31 11.5581C174.31 12.238 174.438 13.0878 176.565 14.1501L180.35 16.0623ZM198.215 16.1048C202.299 18.2295 204 20.1841 204 23.0312C204 26.4731 201.235 29.915 195.323 29.915C192.175 29.915 190.346 29.4051 188.815 28.7677L186.816 22.5637L187.922 22.2238L188.9 23.1586C191.92 26.0057 194.515 27.8754 196.514 27.8754C198.003 27.8754 198.811 26.9405 198.811 25.9632C198.811 24.9858 198.641 23.966 196.088 22.6487L192.303 20.694C188.985 18.9943 187.411 16.9547 187.411 14.5751C187.411 10.4958 190.984 8.11615 195.578 8.11615C198.683 8.11615 200.427 8.54108 200.427 8.54108L202.171 13.9377L201.065 14.2776L200.384 13.6827C196.854 10.5807 195.621 9.94334 194.132 9.94334C193.068 9.94334 192.175 10.6232 192.175 11.5581C192.175 12.238 192.303 13.0453 194.43 14.1501L198.215 16.1048Z" fill="#1C1B18"/>
</svg>
